<?xml version="1.0" encoding="UTF-8" standalone="no"?>
<!-- Created with Inkscape (http://www.inkscape.org/) -->

<svg
   width="512"
   height="512"
   viewBox="0 0 135.46666 135.46667"
   version="1.1"
   id="svg1"
   xml:space="preserve"
   inkscape:version="1.3.2 (091e20ef0f, 2023-11-25)"
   sodipodi:docname="favicon.svg"
   xmlns:inkscape="http://www.inkscape.org/namespaces/inkscape"
   xmlns:sodipodi="http://sodipodi.sourceforge.net/DTD/sodipodi-0.dtd"
   xmlns="http://www.w3.org/2000/svg"
   xmlns:svg="http://www.w3.org/2000/svg"><sodipodi:namedview
     id="namedview1"
     pagecolor="#ffffff"
     bordercolor="#000000"
     borderopacity="0.25"
     inkscape:showpageshadow="2"
     inkscape:pageopacity="0.0"
     inkscape:pagecheckerboard="0"
     inkscape:deskcolor="#d1d1d1"
     inkscape:document-units="mm"
     inkscape:zoom="1.4342733"
     inkscape:cx="234.61359"
     inkscape:cy="263.19949"
     inkscape:window-width="1920"
     inkscape:window-height="1011"
     inkscape:window-x="0"
     inkscape:window-y="0"
     inkscape:window-maximized="1"
     inkscape:current-layer="layer1" /><defs
     id="defs1" /><g
     inkscape:label="Слой 1"
     inkscape:groupmode="layer"
     id="layer1"><rect
       style="fill:#347928;fill-rule:evenodd;stroke-width:2.01586;fill-opacity:1"
       id="rect1"
       width="135.46666"
       height="135.46666"
       x="0"
       y="0"
       ry="0" /><path
       style="fill:#c0eba6;stroke-width:0.308833;fill-opacity:1"
       d="m 104.45978,105.52672 c -0.53188,-0.0912 -0.76474,-0.37007 -0.76474,-0.91586 0,-0.78249 0.40881,-1.02637 1.71596,-1.02372 0.97852,0.001 1.33599,0.0931 1.62309,0.41349 0.20844,0.23264 0.22966,0.30615 0.19435,0.67361 -0.0558,0.58126 -0.37914,0.86985 -0.98118,0.87586 -0.23523,0.003 -0.65494,0.0115 -0.93269,0.0204 -0.27774,0.009 -0.6624,-0.0109 -0.85479,-0.0439 z m 4.9071,-0.0855 c -0.46943,-0.31635 -0.59757,-0.77067 -0.3706,-1.31391 0.15602,-0.37342 0.54777,-0.54259 1.25643,-0.54259 0.8988,0 1.3705,0.40967 1.29954,1.12863 -0.0622,0.63024 -0.51091,0.91279 -1.45115,0.91372 -0.34172,3.1e-4 -0.52784,-0.0467 -0.73422,-0.18585 z m -85.0589,-1.4e-4 c -0.573456,-0.4519 -0.51878,-1.58718 0.08465,-1.75758 0.112799,-0.0319 1.112431,-0.058 2.221398,-0.058 1.917353,0 2.027626,0.008 2.24708,0.17084 0.126931,0.0939 0.284283,0.32225 0.34967,0.50732 0.10688,0.3025 0.104922,0.36579 -0.0194,0.62642 -0.07607,0.15946 -0.25823,0.36309 -0.404879,0.45249 -0.247672,0.15101 -0.411773,0.1624 -2.309417,0.16027 -1.479167,-6.5e-4 -2.077655,-0.0298 -2.169123,-0.10183 z m 8.168212,-0.12263 c -0.315731,-0.28211 -0.41051,-0.83161 -0.210241,-1.21889 0.227314,-0.43957 0.526811,-0.51484 2.04857,-0.51484 1.269152,0 1.375959,0.0119 1.641427,0.18385 0.413948,0.26802 0.57629,0.64977 0.452309,1.06357 -0.0536,0.1788 -0.184829,0.41252 -0.291691,0.51937 -0.191318,0.19133 -0.218732,0.1943 -1.790105,0.1943 H 32.73065 Z m 6.046755,0.0421 c -0.384611,-0.25806 -0.541981,-0.74257 -0.372745,-1.1476 0.06632,-0.15881 0.223208,-0.35595 0.34856,-0.4381 0.217135,-0.14229 0.698294,-0.15037 10.169686,-0.17105 l 9.941777,-0.0218 0.387525,-0.67284 c 0.526776,-0.91464 1.802081,-2.18081 2.638207,-2.61933 0.659717,-0.346005 1.659745,-0.709167 1.952745,-0.709167 h 0.189973 l -0.0027,-4.22862 -0.0018,-4.228607 -0.478821,-0.233645 c -0.526966,-0.257151 -1.357425,-1.044115 -1.63742,-1.55167 -0.380469,-0.689688 -0.503385,-1.652802 -0.321751,-2.520969 0.210585,-1.006515 1.067051,-2.058371 1.986225,-2.439346 l 0.456261,-0.18911 v -0.709084 -0.709086 l -0.551593,-0.05616 c -3.861849,-0.393213 -7.997812,-3.19702 -10.042835,-6.808081 -1.128964,-1.99349 -1.676693,-3.884656 -1.828692,-6.313929 -0.08817,-1.409111 -0.0722,-4.494436 0.02328,-4.494267 0.03375,5.7e-5 0.444829,1.03e-4 0.913597,1.03e-4 h 0.852306 l 0.03348,2.839491 c 0.03682,3.118713 0.0555,3.270695 0.604752,4.923161 0.556663,1.674637 1.770253,3.62448 2.980712,4.789042 1.312908,1.26312 3.689754,2.624718 5.113765,2.929449 l 0.264186,0.05653 -0.01904,-0.50424 -0.01904,-0.504233 -0.571985,-0.186305 c -1.527471,-0.497517 -2.95122,-1.389425 -4.169611,-2.612066 -1.233768,-1.23807 -2.108905,-2.656089 -2.647078,-4.289196 -0.496707,-1.507243 -0.519501,-1.699225 -0.556066,-4.683855 l -0.03375,-2.757782 h 4.908497 4.908533 v -1.164398 l 9e-6,-1.164394 -4.90273,0.02637 -4.90274,0.02638 v -3.151826 -3.151876 h 4.943582 4.943591 l -4.15e-4,-0.592414 c -3.07e-4,-0.325826 -0.02401,-0.840614 -0.05269,-1.143968 l -0.05207,-0.55157 h -4.891902 -4.891865 l 0.02148,-3.084633 c 0.01858,-2.672114 0.03781,-3.086101 0.143977,-3.095633 0.06741,-0.006 2.264442,-0.01524 4.882299,-0.02041 l 4.759728,-0.0094 v -1.143955 -1.14397 H 59.03962 54.136889 v -1.579096 c 0,-1.215707 0.03709,-1.784526 0.161205,-2.471791 0.538109,-2.979869 2.181846,-5.519513 4.68352,-7.23624 0.750994,-0.515355 2.058208,-1.177707 2.497838,-1.265633 0.256074,-0.05121 0.256661,-0.05255 0.256661,-0.581106 v -0.52974 l -0.224707,0.0558 c -1.419933,0.352655 -3.484945,1.631464 -4.883825,3.024427 -1.599032,1.592274 -2.674916,3.577482 -3.233636,5.96667 -0.139854,0.598063 -0.179857,1.097846 -0.214166,2.676071 l -0.04215,1.940662 h -0.899501 -0.899493 l 0.0444,-1.981517 c 0.03438,-1.533131 0.08131,-2.157178 0.207479,-2.757785 0.997295,-4.74751 4.15697,-8.534446 8.593098,-10.29901 0.612457,-0.243617 1.322158,-0.444542 2.35692,-0.667273 0.76841,-0.165401 1.096314,-0.18742 2.790946,-0.18742 1.825868,0 1.967346,0.01133 2.879012,0.230648 4.159515,1.000636 7.536551,3.650268 9.339396,7.327722 0.61178,1.247898 0.90324,2.130617 1.2681,3.84047 0.0874,0.409763 0.24292,4.289474 0.17766,4.432882 -0.0153,0.0337 -2.930581,0.06128 -6.478324,0.06128 h -6.450434 v 1.143969 1.143969 h 6.496113 6.496105 v 3.104567 3.104566 l -6.475684,0.02089 -6.475682,0.02089 -0.02256,1.143971 -0.02256,1.143968 6.498234,-0.0162 6.498242,-0.01619 v 3.146565 3.146572 l -6.49613,-0.02534 -6.496132,-0.02534 1.9e-5,1.164398 1.7e-5,1.164394 h 6.508242 6.508254 l -0.0513,2.798639 c -0.0552,3.018062 -0.13009,3.681699 -0.58228,5.16418 -1.069,3.504746 -3.638466,6.539076 -6.988168,8.25249 -1.402319,0.717302 -3.163177,1.252834 -4.659381,1.417068 -0.346864,0.03807 -0.528291,0.09373 -0.522958,0.160437 0.0045,0.05617 0.01372,0.377921 0.0204,0.714979 0.0099,0.49584 0.03663,0.612841 0.139881,0.612841 0.28403,0 1.082409,0.464572 1.478381,0.860248 1.282913,1.281972 1.41663,3.308757 0.313692,4.754799 -0.393049,0.515332 -0.937249,0.958176 -1.38991,1.131051 l -0.366365,0.139915 v 4.199633 c 0,3.290301 0.0221,4.205715 0.102142,4.227656 0.05622,0.01546 0.304379,0.07462 0.551555,0.131542 0.523409,0.120582 1.606865,0.610104 2.099051,0.948364 0.778553,0.53508 1.835596,1.68803 2.31365,2.52357 l 0.256886,0.449 h 5.559164 c 4.61955,0 5.55205,-0.0186 5.51705,-0.10977 -0.0232,-0.0604 -0.0666,-0.32695 -0.0965,-0.59241 -0.0966,-0.85673 -0.66141,-3.451137 -0.96696,-4.441102 l -0.11207,-0.363123 0.70143,-0.44036 c 0.86015,-0.540022 1.6808,-1.203713 2.03799,-1.648188 0.14753,-0.183577 0.38097,-0.581375 0.51876,-0.884013 0.1378,-0.302625 0.4104,-0.892082 0.6058,-1.309899 0.1954,-0.417804 0.39882,-0.905015 0.45205,-1.082679 0.10713,-0.357584 0.16517,-0.377726 0.58409,-0.202697 0.4393,0.183552 0.47342,0.630822 0.14833,1.944641 -0.59511,2.405104 -0.54074,3.457534 0.25992,5.030194 0.25983,0.510324 0.26119,0.518896 0.1,0.633976 -1.10214,0.78679 -1.72746,1.30804 -2.67543,2.2302 -0.61831,0.60147 -1.12419,1.12545 -1.12419,1.16441 0,0.0389 1.66387,0.0709 3.69748,0.0712 3.51704,2.8e-4 3.71018,0.008 3.95782,0.15904 0.62474,0.38093 0.608,1.19661 -0.0333,1.61675 -0.20882,0.13682 -1.53618,0.14522 -26.173849,0.16568 l -25.953868,0.0216 z m 46.228489,-5.152 c 0.58418,-0.446284 0.73166,-0.870106 0.47528,-1.365884 -0.33398,-0.645846 -1.39984,-0.646441 -1.78111,-6.47e-4 -0.13693,0.231801 -0.11659,0.312602 0.20659,0.820784 0.0715,0.112358 0.15658,0.332985 0.18918,0.490277 0.0326,0.1573 0.0911,0.37042 0.13,0.47359 l 0.0707,0.18759 0.18445,-0.17263 c 0.10146,-0.0949 0.33766,-0.28968 0.52492,-0.43274 z m 11.49963,5.05936 c -0.24001,-0.24 -0.27783,-0.33206 -0.27783,-0.67636 0,-0.4723 0.15779,-0.7336 0.53919,-0.89297 0.34,-0.14206 3.495854,-0.1611 3.989414,-0.0241 0.47093,0.13075 0.78338,0.47693 0.7798,0.86397 -0.004,0.38647 -0.14006,0.64256 -0.45203,0.84821 -0.22062,0.14543 -0.40066,0.15801 -2.270174,0.15851 l -2.03055,6.4e-4 z m -8.40818,-12.779837 c -0.31458,-0.01352 -0.59944,-0.05196 -0.633,-0.08554 -0.0335,-0.03358 0.14337,-0.757867 0.39318,-1.609658 0.24982,-0.851784 0.79809,-2.743737 1.21837,-4.20434 1.72051,-5.979177 2.36882,-8.215381 2.90195,-10.009734 0.18694,-0.629184 0.39023,-1.327824 0.45174,-1.552529 0.0972,-0.35491 0.32759,-1.138025 0.73334,-2.492223 0.0605,-0.202238 0.20126,-0.680248 0.31261,-1.062257 0.11133,-0.382003 0.3009,-1.025486 0.42124,-1.429961 0.12034,-0.404474 0.74841,-2.582546 1.39569,-4.840164 1.66723,-5.814936 2.36717,-8.233798 2.74913,-9.500314 0.18298,-0.606709 0.43299,-1.470814 0.55561,-1.920234 0.12261,-0.449415 0.45109,-1.607682 0.72997,-2.573929 0.27889,-0.966248 0.55327,-1.92328 0.60975,-2.126745 0.10462,-0.376878 0.17815,-1.468588 0.0989,-1.468588 -0.0239,0 -0.32524,0.873299 -0.66948,1.940662 -0.34422,1.067367 -1.07785,3.337941 -1.63025,5.045725 -0.55243,1.707783 -1.21257,3.76693 -1.46699,4.57588 -0.25444,0.808948 -0.66098,2.09591 -0.90344,2.859922 -0.24248,0.764007 -0.51148,1.628113 -0.59781,1.920238 -0.0864,0.292118 -0.42236,1.376846 -0.74673,2.410504 -0.85005,2.708843 -1.3911,4.451933 -1.48374,4.780157 -0.0444,0.157294 -0.3196,1.039787 -0.61157,1.961093 -0.53929,1.701684 -0.71679,2.280517 -0.78929,2.573929 -0.0223,0.08989 -0.15716,0.531129 -0.29985,0.980546 -0.26743,0.842239 -1.26973,4.134881 -1.56705,5.147862 -0.17002,0.579298 -1.18751,3.879591 -2.00274,6.496112 -0.24505,0.786476 -0.57129,1.922471 -0.72497,2.524422 -0.15368,0.601957 -0.29381,1.108851 -0.3114,1.126444 -0.0671,0.06705 -1.0342,-0.571495 -1.54257,-1.018499 -1.15797,-1.018196 -1.82426,-2.029856 -2.29877,-3.490341 -0.36206,-1.114381 -0.44864,-1.999193 -0.30391,-3.105632 0.1239,-0.947122 0.407,-2.164801 0.50331,-2.164801 0.0412,0 0.0749,0.03577 0.0749,0.07945 0,0.100712 1.83878,2.922801 2.06292,3.166087 0.36151,0.392397 0.40907,-0.0834 0.10245,-1.024898 -0.11235,-0.344986 -0.55989,-1.331037 -0.99454,-2.191216 l -0.79027,-1.56396 0.54191,-1.377677 c 0.29806,-0.757716 0.69317,-1.772955 0.87804,-2.256073 0.18486,-0.483124 0.34935,-0.878409 0.36555,-0.878409 0.0162,0 0.27591,0.487211 0.57717,1.082687 1.53662,3.037323 1.87992,3.45793 1.66654,2.041807 -0.13157,-0.873254 -0.64593,-2.398208 -1.19838,-3.552956 -0.45019,-0.941023 -0.46019,-0.976812 -0.35498,-1.270891 0.1136,-0.317505 1.16977,-2.877724 1.96197,-4.755898 0.25589,-0.606714 0.64501,-1.553556 0.86468,-2.104092 0.21967,-0.55053 0.42288,-1.000972 0.45156,-1.000972 0.0602,0 1.00699,2.166553 1.63829,3.748889 0.2326,0.582987 0.21968,-0.643792 -0.0193,-1.828654 -0.0906,-0.449416 -0.34898,-1.379659 -0.57414,-2.067202 l -0.40937,-1.250077 0.38608,-0.915294 c 0.21233,-0.50341 0.41699,-0.970446 0.45479,-1.037854 0.0379,-0.06742 0.41471,-0.894752 0.83758,-1.838527 0.42284,-0.943777 1.12598,-2.469749 1.56251,-3.391054 0.43653,-0.921302 1.07974,-2.281813 1.42938,-3.023345 0.34965,-0.741538 1.09911,-2.298382 1.66547,-3.459657 2.93416,-6.016249 4.45551,-8.956061 6.775274,-13.092268 0.48051,-0.856764 0.87366,-1.603535 0.87366,-1.659492 0,-0.05596 0.028,-0.08446 0.0622,-0.06334 0.19975,0.123448 -0.48655,6.555241 -1.41528,13.263489 -0.20425,1.475357 -0.40851,2.958246 -0.45389,3.295309 -0.61416,4.561448 -1.06124,7.509762 -1.747064,11.521407 -0.1114,0.651651 -0.31898,1.897393 -0.46126,2.768303 -0.24892,1.52365 -0.26809,1.591565 -0.50736,1.797666 -0.89121,0.767634 -1.9285,1.743742 -2.66831,2.510893 -0.77424,0.802846 -1.2965,1.421197 -1.20038,1.421197 0.1289,0 2.15053,-1.301237 3.21244,-2.067713 0.23008,-0.166063 0.4456,-0.301937 0.47894,-0.301937 0.0728,0 0.12811,-0.324741 -0.73462,4.318046 -0.38702,2.082803 -0.73496,3.869174 -0.77318,3.969709 -0.0384,0.100847 -0.33832,0.344591 -0.66917,0.543719 -0.91157,0.548648 -2.13705,1.570459 -2.819,2.350484 -0.33664,0.385074 -0.64932,0.769694 -0.69483,0.854714 -0.0758,0.141578 -0.0598,0.149638 0.19004,0.09581 0.41113,-0.08859 0.64155,-0.22009 2.15928,-1.232358 0.76793,-0.512183 1.43221,-0.931245 1.47618,-0.931245 0.0453,0 -0.005,0.398261 -0.11502,0.919262 -0.88021,4.150062 -0.76053,3.747319 -1.1834,3.982465 -1.1527,0.641028 -3.90281,2.77829 -3.90281,3.0331 0,0.07262 0.44423,-0.02912 0.94831,-0.217116 0.21997,-0.08205 0.94613,-0.457143 1.61368,-0.833525 0.66756,-0.376387 1.234,-0.664071 1.25877,-0.639301 0.0247,0.02478 -0.0593,0.293667 -0.18684,0.597549 -0.77239,1.84049 -2.00948,3.18142 -3.67477,3.983272 -1.31259,0.632025 -2.26577,0.847327 -3.51361,0.793681 z m -36.537901,-32.803244 0.01263,-3.125487 0.909897,-0.02299 0.909889,-0.023 -0.0036,3.14851 -0.0036,3.148504 h -0.919309 -0.919327 z m 0.02337,-8.171211 c 0.01335,-1.494313 0.02553,-2.891588 0.02716,-3.105062 l 0.0027,-0.388131 h 0.898834 0.898833 v 3.105062 3.105059 h -0.92599 -0.925996 z"
       id="path1" /></g></svg>
